<svg id="Ebene_2" data-name="Ebene 2" xmlns="http://www.w3.org/2000/svg" viewBox="0 0 1366 427.4"><defs><style>.cls-1{fill:#ffb16a;}.cls-2{fill:#7484ff;}.cls-3{fill:#9ebfff;}.cls-4{fill:#c1d1ff;}.cls-5{fill:#929292;}.cls-6{fill:#fff;}</style></defs><title>elbflohmarkt2</title><path class="cls-1" d="M661.41,307.52" transform="translate(-16.41 -23.83)"/><path class="cls-1" d="M638.41,274.52" transform="translate(-16.41 -23.83)"/><g id="Logo"><path class="cls-2" d="M16.41,343.8c33.37-32.94,86.72-74.7,156.92-82,109.73-11.4,133.25,74.62,242.53,67.73,129.84-8.18,148.25-78.38,281.76-82,145.46-3.93,236.23,129,385.3,129,56,0,142.25-2.12,299.48-111.14,0,0,0,181.8,0,185.37.14,1.07-1366,0-1366,0Z" transform="translate(-16.41 -23.83)"/><path class="cls-3" d="M16.41,368.62c33.37-25.33,86.72-57.44,156.92-63.05,109.73-8.76,133.25,57.38,242.53,52.09,129.84-6.3,150.37-78.36,283.87-81.14,145.46-3,235.12,123,383.19,123,65,0,142.25-11.16,299.48-95,0,0,0,143.6,0,146.34.14.82-1366,0-1366,0Z" transform="translate(-16.41 -23.83)"/><path class="cls-4" d="M17.41,390.85c33.34-18.51,86.8-45.2,157-49.3,109.64-6.41,131.74,51.86,240.93,48,129.74-4.6,151.52-80,284.93-82,145.35-2.21,234.65,116,383.91,116,64,0,145-12,297.92-84,0,0,.34,109.4.35,111.41.14.6-1365,0-1365,0Z" transform="translate(-16.41 -23.83)"/><path class="cls-5" d="M618.61,199.42c1.91-1-1.42-23.25-17.16-35A28.86,28.86,0,0,0,585,158.05c-8-.34-17.43,2.82-17.58,5.55-.2,3.72,17.17,1.17,32.91,12.72C614.06,186.4,617.08,200.26,618.61,199.42Z" transform="translate(-16.41 -23.83)"/><path class="cls-5" d="M634.34,150.26c1.13-1.86-12.86-19.44-32.37-21.74a28.81,28.81,0,0,0-17.42,2.71c-7.14,3.72-13.69,11.16-12.45,13.59,1.69,3.33,15.45-7.57,34.85-5.43C623.89,141.25,633.44,151.75,634.34,150.26Z" transform="translate(-16.41 -23.83)"/><path class="cls-5" d="M629.36,105.13c0-2.18-20.85-10.41-38.9-2.65a28.88,28.88,0,0,0-13.74,11.07c-4.31,6.79-6.27,16.5-4,18,3.13,2,9.59-14.28,27.47-22.13C615.8,102.55,629.32,106.87,629.36,105.13Z" transform="translate(-16.41 -23.83)"/><path class="cls-5" d="M480.5,199.42c-1.91-1,1.42-23.25,17.16-35a28.86,28.86,0,0,1,16.45-6.36c8-.34,17.43,2.82,17.57,5.55.2,3.72-17.16,1.17-32.9,12.72C485.05,186.4,482,200.26,480.5,199.42Z" transform="translate(-16.41 -23.83)"/><path class="cls-5" d="M464.77,150.26c-1.13-1.86,12.86-19.44,32.36-21.74a28.84,28.84,0,0,1,17.43,2.71c7.14,3.72,13.69,11.16,12.45,13.59-1.69,3.33-15.45-7.57-34.86-5.43C475.22,141.25,465.67,151.75,464.77,150.26Z" transform="translate(-16.41 -23.83)"/><path class="cls-5" d="M469.75,105.13c-.05-2.18,20.85-10.41,38.9-2.65a28.82,28.82,0,0,1,13.73,11.07c4.32,6.79,6.28,16.5,4,18-3.13,2-9.6-14.28-27.47-22.13C483.31,102.55,469.79,106.87,469.75,105.13Z" transform="translate(-16.41 -23.83)"/><path class="cls-2" d="M38.52,150.89C39,181.44,58.54,194,81.13,194c16.17,0,25.93-2.82,34.4-6.41l3.85,16.17c-8,3.59-21.57,7.7-41.33,7.7C39.8,211.47,17,186.31,17,148.84s22.07-67,58.27-67c40.55,0,51.34,35.68,51.34,58.53a86.47,86.47,0,0,1-.77,10.52Zm66.23-16.17C105,120.34,98.84,98,73.43,98c-22.85,0-32.86,21-34.65,36.71Z" transform="translate(-16.41 -23.83)"/><path class="cls-2" d="M154.53,26.65h22.59V208.9H154.53Z" transform="translate(-16.41 -23.83)"/><path class="cls-2" d="M214.08,208.9c.51-8.47,1-21.05,1-32.08V26.65h22.34v78H238c8-13.87,22.33-22.85,42.35-22.85,30.81,0,52.62,25.67,52.37,63.4,0,44.41-28,66.49-55.7,66.49-18,0-32.35-6.94-41.59-23.36h-.77l-1,20.53Zm23.36-49.8a42.59,42.59,0,0,0,1,8.22c4.37,15.66,17.46,26.44,33.89,26.44,23.61,0,37.73-19.25,37.73-47.75,0-24.9-12.84-46.2-37-46.2-15.41,0-29.78,10.52-34.4,27.72a44.83,44.83,0,0,0-1.28,9.24Z" transform="translate(-16.41 -23.83)"/><path class="cls-5" d="M363.45,208.9v-107H346V84.66h17.45V79.27c0-17.2,5.91-32.6,17.46-42.86,9.75-8.22,22.59-12.58,39.79-12.58,14.37,0,28,3.08,37.22,8.21V208.9H435.59V44.62c-3.86-2-9.76-3.34-18.49-3.34-23.61,0-31.31,17.2-31.31,37.22v6.16h29v17.2h-29v107Z" transform="translate(-16.41 -23.83)"/><path class="cls-5" d="M636.29,26.65h22.59v77.52h.51a41.89,41.89,0,0,1,16.18-15.91,46.48,46.48,0,0,1,23.1-6.42c16.68,0,43.38,10.27,43.38,53.14V208.9H719.46V137.54c0-20-7.44-37-28.75-37-14.63,0-26.18,10.27-30.29,22.59-1.28,3.08-1.54,6.41-1.54,10.78v75H636.29Z" transform="translate(-16.41 -23.83)"/><path class="cls-5" d="M778.75,118.29c0-12.83-.26-23.36-1-33.63h19.77l1,20h.77c6.93-11.81,18.48-22.85,39-22.85,16.94,0,29.77,10.27,35.16,24.9H874a51.09,51.09,0,0,1,13.86-16.17c7.44-5.65,15.65-8.73,27.46-8.73,16.43,0,40.82,10.78,40.82,53.9V208.9H934V138.57c0-23.87-8.72-38.25-26.95-38.25-12.84,0-22.85,9.5-26.7,20.54a37.37,37.37,0,0,0-1.79,11.29V208.9H856.52V134.46c0-19.76-8.73-34.14-25.92-34.14-14.12,0-24.39,11.3-28,22.59a31,31,0,0,0-1.8,11v75H778.75Z" transform="translate(-16.41 -23.83)"/><path class="cls-5" d="M1061.6,208.9l-1.79-15.66H1059c-6.93,9.76-20.28,18.49-38,18.49-25.15,0-38-17.72-38-35.68,0-30,26.7-46.47,74.7-46.21v-2.57c0-10.26-2.83-28.75-28.24-28.75a61.88,61.88,0,0,0-32.34,9.25L992,92.88c10.26-6.68,25.15-11,40.81-11,38,0,47.23,25.93,47.23,50.83v46.46c0,10.78.52,21.3,2.05,29.77Zm-3.34-63.4c-24.64-.51-52.62,3.85-52.62,28,0,14.63,9.75,21.56,21.31,21.56,16.17,0,26.44-10.27,30-20.79a23.59,23.59,0,0,0,1.28-7.19Z" transform="translate(-16.41 -23.83)"/><path class="cls-5" d="M1116.52,123.42c0-14.63-.26-27.21-1-38.76h19.77l.77,24.39h1c5.64-16.69,19.25-27.21,34.39-27.21a24.56,24.56,0,0,1,6.42.77v21.3a34.17,34.17,0,0,0-7.7-.76c-15.92,0-27.21,12.06-30.29,29a64,64,0,0,0-1,10.53V208.9h-22.33Z" transform="translate(-16.41 -23.83)"/><path class="cls-5" d="M1223.81,141.65h.51c3.08-4.37,7.45-9.76,11-14.12l36.45-42.87H1299l-48,51.08,54.67,73.16h-27.46l-42.87-59.55-11.55,12.84V208.9h-22.34V26.65h22.34Z" transform="translate(-16.41 -23.83)"/><path class="cls-5" d="M1349.06,49V84.66h32.35v17.2h-32.35v67c0,15.4,4.37,24.13,16.94,24.13a50.33,50.33,0,0,0,13.1-1.54l1,16.94c-4.36,1.8-11.29,3.08-20,3.08-10.52,0-19-3.34-24.39-9.5-6.41-6.67-8.72-17.71-8.72-32.34V101.86h-19.26V84.66H1327V54.89Z" transform="translate(-16.41 -23.83)"/><path class="cls-5" d="M602.41,144.67c0,41.82-27.43,60.05-53.27,60.05-28.95,0-51.27-22.41-51.27-58.17,0-37.83,23.42-60,53-60C581.64,86.52,602.41,110.12,602.41,144.67Z" transform="translate(-16.41 -23.83)"/><path class="cls-6" d="M581.87,158c0,23.34-16.65,33.52-32.34,33.52C532,191.5,518.41,179,518.41,159c0-21.12,14.21-33.51,32.19-33.51C569.26,125.52,581.87,138.69,581.87,158Z" transform="translate(-16.41 -23.83)"/><g id="Augen"><ellipse class="cls-5" cx="558.4" cy="75.99" rx="23.4" ry="20.3"/><g id="Augen-2" data-name="Augen"><ellipse class="cls-5" cx="509.36" cy="75.99" rx="23.64" ry="20.3"/></g><g id="Augen-3" data-name="Augen"><ellipse class="cls-6" cx="556.43" cy="76.05" rx="20.57" ry="17.84"/><g id="Augen-4" data-name="Augen"><ellipse class="cls-6" cx="511.3" cy="75.93" rx="20.79" ry="17.84"/></g></g><g id="Augen-5" data-name="Augen"><g id="Augen-6" data-name="Augen"><ellipse cx="511" cy="86.87" rx="15" ry="7.83"/><ellipse cx="557" cy="86.87" rx="15" ry="7.83"/></g></g></g></g></svg>